<svg xmlns="http://www.w3.org/2000/svg" width="600" height="285.792" viewBox="0 0 600 285.792"><path d="M248.181 84.527c-6.704 5.814-10.056 14.902-10.056 27.26v43.832c0 12.36 3.325 21.445 9.977 27.258 6.65 5.813 15.37 8.72 26.159 8.72 11.1 0 20.134-2.829 27.1-8.485 6.965-5.656 10.448-13.196 10.448-22.623 0-3.874-.813-6.52-2.435-7.933-1.625-1.415-4.27-2.121-7.934-2.121-6.39 0-9.741 2.147-10.055 6.44-.105 2.2-.341 4.061-.707 5.578-.368 1.52-1.049 3.248-2.043 5.185-.996 1.939-2.619 3.431-4.87 4.477-2.253 1.048-5.054 1.57-8.405 1.57-11.208 0-16.81-6.02-16.81-18.066v-43.833c0-12.043 5.499-18.068 16.497-18.068 2.827 0 5.287.394 7.383 1.178 2.094.786 3.665 1.729 4.713 2.829 1.046 1.1 1.91 2.462 2.592 4.084.68 1.625 1.1 2.934 1.257 3.928.158.997.288 2.175.393 3.535.103 4.296 3.508 6.442 10.213 6.442 3.664 0 6.283-.707 7.854-2.121 1.572-1.415 2.357-4.058 2.357-7.934 0-9.007-3.483-16.234-10.448-21.681-6.966-5.444-15.945-8.17-26.943-8.17-10.79 0-19.535 2.906-26.237 8.72zm105.73-2.435c0-2.093-.996-3.664-2.985-4.713-1.99-1.045-4.397-1.57-7.226-1.57-2.828 0-5.239.525-7.227 1.57-1.992 1.049-2.986 2.62-2.986 4.713v102.12c0 1.991.994 3.562 2.986 4.713 1.988 1.154 4.399 1.729 7.227 1.729 2.722 0 5.107-.575 7.148-1.729 2.042-1.151 3.063-2.722 3.063-4.713v-45.09h35.35v45.09c0 1.991.995 3.562 2.987 4.713 1.989 1.154 4.396 1.729 7.227 1.729 2.72 0 5.106-.575 7.148-1.729 2.041-1.151 3.06-2.722 3.06-4.713V82.092c0-2.093-.994-3.664-2.982-4.713-1.993-1.045-4.4-1.57-7.226-1.57-2.831 0-5.238.525-7.227 1.57-1.992 1.049-2.986 2.62-2.986 4.713v41.006H353.91V82.092zm85.152-4.556c-1.781 1.155-2.67 2.725-2.67 4.714v101.962c0 1.991.889 3.562 2.67 4.713 1.78 1.154 3.874 1.729 6.285 1.729h55.93c2.094 0 3.692-.889 4.791-2.67 1.101-1.78 1.65-3.823 1.65-6.128 0-2.514-.576-4.66-1.728-6.442-1.154-1.78-2.724-2.67-4.712-2.67h-44.463v-31.58h23.881c2.093 0 3.691-.809 4.792-2.434 1.1-1.623 1.65-3.43 1.65-5.42 0-2.2-.578-4.11-1.728-5.735-1.154-1.623-2.726-2.435-4.714-2.435h-23.88V93.718h44.462c1.988 0 3.558-.888 4.712-2.67 1.152-1.78 1.727-3.928 1.727-6.441 0-2.303-.548-4.346-1.649-6.128-1.099-1.78-2.697-2.67-4.79-2.67h-55.93c-2.412 0-4.505.576-6.286 1.727zm108.876 4.556c0-2.093-.996-3.664-2.984-4.713-1.99-1.045-4.4-1.57-7.226-1.57-2.829 0-5.24.525-7.229 1.57-1.99 1.049-2.984 2.62-2.984 4.713v102.12c0 1.991.89 3.562 2.67 4.713 1.78 1.154 3.874 1.729 6.285 1.729h49.804c1.883 0 3.377-.889 4.476-2.67 1.1-1.78 1.651-3.875 1.651-6.285 0-2.409-.55-4.503-1.651-6.285-1.1-1.78-2.593-2.67-4.476-2.67h-38.336V82.091zm-304.39-19.98c5.771 2.237 12.69 3.356 20.755 3.356 9.082 0 16.403-1.597 21.963-4.795 5.56-3.195 8.34-7.734 8.34-13.617 0-3.498-1.018-6.553-3.056-9.163a20.036 20.036 0 0 0-7.575-5.98c-3.015-1.376-6.284-2.653-9.804-3.829-3.524-1.175-6.793-2.15-9.805-2.925-3.014-.774-5.538-1.777-7.576-3.01-2.037-1.234-3.056-2.681-3.056-4.346 0-2.065 1.251-3.685 3.756-4.861 2.503-1.175 6.049-1.764 10.632-1.764 4.159 0 7.936.546 11.333 1.635 3.393 1.09 5.475 1.634 6.239 1.634 2.037 0 3.648-.68 4.838-2.045 1.188-1.365 1.782-2.686 1.782-3.964 0-1.355-.87-2.533-2.61-3.534-1.74-1-3.99-1.737-6.748-2.209-2.76-.47-5.37-.81-7.83-1.016a84.475 84.475 0 0 0-7.004-.309c-3.906 0-7.598.306-11.077.917-3.482.611-6.75 1.573-9.805 2.882-3.055 1.31-5.496 3.143-7.321 5.5-1.826 2.359-2.737 5.082-2.737 8.167 0 2.752.742 5.205 2.228 7.356 1.484 2.15 3.438 3.872 5.857 5.161 2.42 1.291 5.093 2.453 8.022 3.485a156.111 156.111 0 0 0 8.721 2.797c2.885.832 5.54 1.692 7.959 2.58 2.419.89 4.37 2.009 5.856 3.356 1.485 1.349 2.229 2.882 2.229 4.603 0 2.467-1.359 4.331-4.075 5.593-2.717 1.262-6.111 1.892-10.186 1.892-2.972 0-5.687-.357-8.15-1.073-2.462-.715-4.35-1.503-5.665-2.368a43.532 43.532 0 0 0-4.075-2.369c-1.4-.715-2.654-1.073-3.756-1.073-1.868 0-3.545.675-5.029 2.022-1.486 1.349-2.229 2.682-2.229 4 0 2.64 2.885 5.077 8.66 7.314zm64.08 1.157c2.523.95 5.173 1.424 7.946 1.424 3.537 0 5.64-.743 6.31-2.23l4.746-11.45h27.28l4.837 11.443c.594 1.493 2.461 2.237 5.604 2.237 2.374 0 4.71-.458 7.002-1.376 2.293-.917 3.439-2.008 3.439-3.27 0-.114-.087-.4-.255-.86L349.963 5.07c-.51-1.204-1.783-2.136-3.82-2.796-2.036-.658-4.329-.99-6.876-.99-2.546 0-4.817.298-6.81.892-1.996.594-3.248 1.435-3.758 2.52l-24.6 54.112c-.169.491-.254.798-.254.92 0 1.41 1.261 2.59 3.783 3.542zm33.578-47.444l11.077 26.413h-22.017l10.94-26.413zm53.095 47.922c1.613.632 3.566.946 5.857.946 2.208 0 4.139-.314 5.794-.946 1.656-.63 2.483-1.49 2.483-2.582V5.242c0-1.147-.809-2.008-2.42-2.582-1.614-.572-3.565-.86-5.857-.86-2.29 0-4.244.288-5.857.86-1.612.574-2.42 1.435-2.42 2.582v55.923c0 1.091.808 1.952 2.42 2.582zm38.2 0c1.613.632 3.566.946 5.856.946 2.208 0 4.14-.314 5.795-.946 1.655-.63 2.483-1.49 2.483-2.582V26.58l27.375 34.586c1.867 2.353 5.049 3.528 9.55 3.528 2.205 0 4.138-.314 5.794-.946 1.653-.63 2.481-1.49 2.481-2.582V5.242c0-1.147-.807-2.008-2.417-2.582-1.615-.572-3.566-.86-5.859-.86s-4.245.288-5.856.86c-1.614.574-2.42 1.435-2.42 2.582v34.587L450.71 7.737c-1.953-2.466-3.736-4.073-5.346-4.818-1.615-.745-3.948-1.119-7.005-1.119-2.29 0-4.243.301-5.856.903-1.612.603-2.42 1.478-2.42 2.624v55.838c0 1.091.808 1.952 2.42 2.582zM512.59 11.61h18.718v49.539c0 1.096.806 1.96 2.418 2.595 1.613.634 3.566.95 5.858.95 2.206 0 4.137-.316 5.793-.95 1.655-.634 2.483-1.5 2.483-2.595v-49.54h18.59c1.612 0 2.886-.487 3.82-1.466.933-.979 1.401-2.138 1.401-3.48 0-1.284-.446-2.415-1.337-3.394-.891-.979-2.188-1.468-3.884-1.468h-53.86c-1.7 0-2.991.49-3.883 1.468s-1.337 2.11-1.337 3.394c0 1.398.464 2.572 1.401 3.521.933.951 2.206 1.426 3.819 1.426zM9.8 199.697c.104 0 .286-.053.545-.156l5.068-2.456c.468-.208.701-.598.701-1.17 0-.467-.155-.903-.467-1.305-.312-.403-.676-.604-1.092-.604-.078 0-.246.026-.506.077l-5.146 2.496c-.442.233-.662.636-.662 1.207 0 .443.155.871.467 1.287.313.416.676.624 1.092.624zm-4.99 31.613h13.877c.52 0 .916-.22 1.19-.662.273-.442.41-.95.41-1.52 0-.625-.145-1.157-.43-1.6-.287-.441-.676-.662-1.17-.662H7.657v-7.835h5.925c.52 0 .916-.2 1.189-.604.273-.403.41-.85.41-1.345 0-.546-.144-1.02-.43-1.423a1.36 1.36 0 0 0-1.17-.604H7.658v-7.796h11.031c.494 0 .883-.221 1.17-.663.285-.441.43-.974.43-1.598 0-.572-.137-1.078-.41-1.52-.274-.441-.67-.663-1.19-.663H4.812c-.6 0-1.119.144-1.56.43-.442.285-.663.675-.663 1.168v25.299c0 .494.221.883.663 1.17.441.285.96.428 1.56.428zm29.88-.643c1.26-.662 1.89-1.397 1.89-2.203 0-.545-.201-1.077-.604-1.598-.403-.52-.916-.78-1.54-.78-.208 0-.688.19-1.442.565a5.401 5.401 0 0 1-2.456.566c-2.547 0-3.82-1.186-3.82-3.558v-3.096c0-2.372 1.26-3.559 3.781-3.559a5.87 5.87 0 0 1 2.475.526c.766.351 1.229.526 1.385.526.545 0 1.012-.272 1.403-.818.39-.546.584-1.091.584-1.638 0-.78-.598-1.48-1.793-2.104-1.196-.623-2.677-.936-4.443-.936-2.807 0-4.913.735-6.316 2.202-1.402 1.469-2.105 3.399-2.105 5.79v3.118c0 2.417.703 4.352 2.105 5.808 1.403 1.456 3.521 2.183 6.355 2.183 1.766 0 3.28-.331 4.54-.994zm20.6-6.997v-3.196c0-2.157-.845-4.016-2.533-5.575-1.69-1.56-3.664-2.339-5.925-2.339-2.314 0-4.301.787-5.964 2.358-1.664 1.573-2.495 3.425-2.495 5.556v3.196c0 2.104.844 3.963 2.534 5.574 1.689 1.612 3.663 2.417 5.925 2.417 2.26 0 4.236-.805 5.925-2.417 1.688-1.61 2.534-3.47 2.534-5.574zm-5.028-.011c0 .927-.345 1.753-1.033 2.475-.689.723-1.488 1.083-2.397 1.083-.936 0-1.742-.36-2.418-1.083-.675-.722-1.012-1.548-1.012-2.475v-3.173c0-.903.337-1.709 1.012-2.418.676-.71 1.482-1.064 2.418-1.064.909 0 1.708.36 2.397 1.084.688.722 1.033 1.521 1.033 2.398v3.173zm12.863-21.233c-.494-.286-1.09-.43-1.793-.43-.754 0-1.358.144-1.812.43-.455.285-.683.662-.683 1.13v26.156c0 .416.24.786.721 1.111.48.325 1.072.487 1.774.487.676 0 1.267-.168 1.773-.506.508-.338.76-.703.76-1.092v-26.157c0-.467-.246-.844-.74-1.13zm13.721 29.235c1.949 0 3.58-.357 4.892-1.072 1.312-.715 1.969-1.436 1.969-2.164 0-.467-.183-.955-.546-1.461s-.819-.76-1.364-.76c-.287 0-.91.247-1.872.74-.961.494-1.936.74-2.924.74-1.377 0-2.481-.343-3.313-1.033-.832-.688-1.247-1.59-1.247-2.708v-.585h7.913c.546 0 .988-.026 1.326-.077.336-.052.707-.181 1.11-.387.403-.205.702-.56.897-1.061.194-.502.292-1.138.292-1.91 0-2.115-.786-3.87-2.358-5.267-1.572-1.397-3.463-2.096-5.671-2.096-2.366 0-4.38.768-6.042 2.3-1.664 1.533-2.495 3.366-2.495 5.497v3.313c0 2.39.877 4.32 2.63 5.788 1.754 1.469 4.022 2.203 6.803 2.203zm-4.405-12.285c0-.85.337-1.535 1.013-2.057.676-.521 1.469-.783 2.379-.783.96 0 1.773.268 2.436.801.662.534.994 1.226.994 2.076 0 .388-.085.649-.254.782-.17.134-.462.2-.877.2h-5.69v-1.02zm23.35.668c-.468 0-.845.194-1.13.577-.287.384-.43.86-.43 1.43 0 .595.143 1.071.43 1.43.285.36.662.54 1.13.54h10.135c.442 0 .825-.186 1.15-.558.324-.371.487-.842.487-1.412 0-.545-.17-1.015-.507-1.412s-.715-.595-1.13-.595H95.792zm32.158-12.785c.701 0 1.311.097 1.832.293.52.195.909.428 1.169.701s.474.611.644 1.014c.168.402.272.727.31.974.04.247.073.54.098.877.026 1.065.871 1.598 2.534 1.598.91 0 1.56-.175 1.95-.526.389-.35.584-1.007.584-1.968 0-2.235-.864-4.028-2.592-5.38-1.729-1.35-3.957-2.027-6.685-2.027-2.677 0-4.847.72-6.51 2.164-1.664 1.442-2.494 3.696-2.494 6.763v10.875c0 3.067.824 5.321 2.475 6.763 1.65 1.443 3.813 2.164 6.49 2.164 2.754 0 4.995-.701 6.724-2.105 1.728-1.403 2.592-3.274 2.592-5.613 0-.961-.201-1.618-.604-1.969-.404-.351-1.059-.526-1.969-.526-1.585 0-2.417.533-2.495 1.598a7.452 7.452 0 0 1-.175 1.384c-.092.377-.26.806-.507 1.287-.247.48-.65.851-1.208 1.11-.559.26-1.254.39-2.085.39-2.781 0-4.171-1.494-4.171-4.483v-10.875c0-2.989 1.364-4.483 4.093-4.483zm25.844 21.985c1.689-1.61 2.534-3.47 2.534-5.574v-3.196c0-2.157-.845-4.016-2.534-5.575-1.69-1.56-3.664-2.339-5.925-2.339-2.314 0-4.301.787-5.964 2.358-1.664 1.573-2.495 3.425-2.495 5.556v3.196c0 2.104.844 3.963 2.534 5.574 1.689 1.612 3.664 2.417 5.925 2.417 2.26 0 4.236-.805 5.925-2.417zm-9.355-5.585v-3.173c0-.903.337-1.709 1.013-2.418.675-.71 1.482-1.064 2.417-1.064.91 0 1.708.36 2.397 1.084.688.722 1.033 1.521 1.033 2.398v3.173c0 .927-.345 1.753-1.033 2.475-.689.723-1.488 1.083-2.397 1.083-.935 0-1.742-.36-2.417-1.083-.676-.722-1.013-1.548-1.013-2.475zm19.723-21.233c-.494-.286-1.09-.43-1.793-.43-.754 0-1.358.144-1.812.43-.455.285-.683.662-.683 1.13v26.156c0 .416.24.786.721 1.111.48.325 1.072.487 1.774.487.676 0 1.267-.168 1.774-.506.507-.338.76-.703.76-1.092v-26.157c0-.467-.247-.844-.74-1.13zm6.06 28.397c.481.325 1.073.487 1.774.487.676 0 1.268-.168 1.774-.506.507-.338.76-.703.76-1.092v-26.157c0-.467-.246-.844-.74-1.13-.494-.285-1.091-.429-1.794-.429-.753 0-1.357.144-1.811.43-.455.285-.683.662-.683 1.13v26.156c0 .416.24.786.72 1.111zm12.573-24.266l5.067 2.456c.26.104.442.156.545.156.416 0 .781-.207 1.092-.623.312-.416.469-.845.469-1.287 0-.598-.222-1-.664-1.209l-5.145-2.495a3.513 3.513 0 0 0-.507-.078c-.416 0-.78.203-1.091.605-.312.403-.468.838-.468 1.306 0 .572.234.962.702 1.17zm4.717 25.104c1.948 0 3.58-.357 4.892-1.072 1.311-.715 1.969-1.436 1.969-2.164 0-.467-.183-.955-.547-1.461s-.818-.76-1.364-.76c-.286 0-.91.247-1.871.74-.961.494-1.936.74-2.924.74-1.377 0-2.481-.343-3.313-1.033-.832-.688-1.247-1.59-1.247-2.708v-.585h7.912c.547 0 .988-.026 1.326-.077.337-.052.708-.181 1.111-.387.403-.205.702-.56.897-1.061.194-.502.292-1.138.292-1.91 0-2.115-.786-3.87-2.358-5.267s-3.464-2.096-5.672-2.096c-2.365 0-4.379.768-6.042 2.3-1.664 1.533-2.494 3.366-2.494 5.497v3.313c0 2.39.877 4.32 2.63 5.788 1.754 1.469 4.022 2.203 6.803 2.203zm-4.405-12.285c0-.85.337-1.535 1.013-2.057.675-.521 1.468-.783 2.378-.783.962 0 1.774.268 2.436.801.663.534.995 1.226.995 2.076 0 .388-.086.649-.254.782-.17.134-.462.2-.877.2h-5.691v-1.02zm30.287 14.429c0-1.352-.402-2.444-1.207-3.274a5.895 5.895 0 0 0-2.924-1.657 31.405 31.405 0 0 0-3.45-.624c-1.157-.142-2.138-.318-2.943-.526-.806-.208-1.209-.532-1.209-.975 0-.259.157-.52.468-.78.754.235 1.599.352 2.534.352 2.261 0 4.113-.618 5.555-1.852 1.442-1.235 2.164-2.787 2.164-4.659v-.818c0-1.481-.455-2.754-1.365-3.82.26-.312.87-.805 1.832-1.48.415-.313.623-.677.623-1.093 0-.363-.181-.714-.545-1.052-.365-.337-.845-.507-1.442-.507-.806 0-1.599.884-2.379 2.651-1.246-.754-2.727-1.13-4.443-1.13-2.261 0-4.093.597-5.496 1.793-1.403 1.195-2.106 2.742-2.106 4.638v.818c0 2.054.806 3.704 2.418 4.952-1.326.883-1.988 1.897-1.988 3.04 0 1.144.545 1.975 1.637 2.494-1.897.963-2.846 2.339-2.846 4.132 0 1.69.832 3.028 2.494 4.016 1.663.987 3.704 1.48 6.12 1.48 2.392 0 4.406-.513 6.043-1.539 1.637-1.027 2.455-2.553 2.455-4.58zm-11.46-14.813c0-.987.247-1.799.741-2.436.493-.637 1.169-.956 2.026-.956.858 0 1.541.326 2.047.975.508.65.76 1.456.76 2.417v.818c0 1.04-.247 1.879-.74 2.514-.494.638-1.17.956-2.028.956-.883 0-1.572-.331-2.065-.994-.494-.663-.74-1.501-.74-2.515v-.78zm5.535 16.957c-.701.493-1.584.74-2.65.74-1.065 0-1.962-.247-2.69-.74-.727-.494-1.091-1.17-1.091-2.027 0-1.144.701-2.04 2.104-2.69.598.078 1.02.13 1.268.156.246.026.643.084 1.188.176.546.09.942.194 1.19.31.246.118.531.267.857.45.325.182.551.408.682.682s.195.59.195.955c0 .83-.351 1.494-1.053 1.988zm7.797-15.592v3.313c0 2.39.877 4.32 2.63 5.788 1.754 1.469 4.022 2.203 6.803 2.203 1.948 0 3.58-.357 4.892-1.072 1.311-.715 1.969-1.436 1.969-2.164 0-.467-.183-.955-.547-1.461s-.818-.76-1.364-.76c-.286 0-.91.247-1.871.74-.961.494-1.936.74-2.924.74-1.377 0-2.481-.343-3.313-1.033-.832-.688-1.247-1.59-1.247-2.708v-.585h7.912c.547 0 .988-.026 1.326-.077.337-.052.708-.181 1.111-.387.403-.205.702-.56.897-1.061.194-.502.292-1.138.292-1.91 0-2.115-.786-3.87-2.358-5.267-1.573-1.397-3.464-2.096-5.672-2.096-2.365 0-4.379.768-6.042 2.3-1.664 1.533-2.494 3.366-2.494 5.497zm5.028-.981c0-.85.337-1.535 1.013-2.057.675-.521 1.468-.783 2.378-.783.962 0 1.774.268 2.436.801.663.534.995 1.226.995 2.076 0 .388-.086.649-.254.782-.17.134-.462.2-.877.2h-5.691v-1.02zm23.349 4.645h10.135c.441 0 .824-.186 1.149-.558.324-.371.488-.842.488-1.412 0-.545-.17-1.015-.508-1.412-.338-.396-.715-.595-1.13-.595h-10.134c-.469 0-.846.194-1.131.577-.287.384-.43.86-.43 1.43 0 .595.143 1.071.43 1.43.285.36.662.54 1.13.54zm27.597-20.816c-.494-.26-1.091-.39-1.793-.39-.701 0-1.3.13-1.793.39-.494.26-.74.65-.74 1.169v25.338c0 .494.22.883.662 1.17.441.285.961.428 1.56.428h12.356c.469 0 .838-.22 1.112-.662.273-.442.408-.962.408-1.56 0-.597-.135-1.117-.408-1.56-.274-.441-.643-.662-1.112-.662h-9.511v-22.492c0-.519-.247-.91-.74-1.169zm26.079 10.07c-.805-.502-1.547-.754-2.222-.754-.701 0-1.144.284-1.325.85l-3.781 11.558-4.678-11.557c-.182-.567-.663-.85-1.442-.85-.702 0-1.437.244-2.203.734s-1.15 1.044-1.15 1.662c0 .18.052.4.157.657l6.704 14.224c-.13 2.036-.786 3.492-1.969 4.368-1.183.875-2.384 1.314-3.606 1.314-.857 0-1.285.734-1.285 2.202 0 .896.194 1.494.584 1.793.39.299.961.449 1.715.449.858 0 1.65-.084 2.378-.254.727-.17 1.345-.364 1.852-.585.507-.222 1.006-.572 1.5-1.054.494-.48.877-.884 1.15-1.209.273-.325.585-.846.936-1.56a34.43 34.43 0 0 0 .74-1.58c.143-.338.371-.95.682-1.834l.663-1.716 5.692-14.552c.078-.183.117-.377.117-.586 0-.644-.404-1.218-1.21-1.72zm11.655 3.73a5.87 5.87 0 0 1 2.475.525c.766.351 1.228.526 1.384.526.546 0 1.013-.272 1.403-.818.39-.546.585-1.091.585-1.638 0-.78-.598-1.48-1.793-2.104s-2.677-.936-4.443-.936c-2.807 0-4.913.735-6.316 2.202-1.403 1.469-2.105 3.399-2.105 5.79v3.118c0 2.417.702 4.352 2.105 5.808 1.403 1.456 3.521 2.183 6.355 2.183 1.766 0 3.28-.331 4.54-.994 1.26-.662 1.89-1.397 1.89-2.203 0-.545-.2-1.077-.603-1.598-.404-.52-.916-.78-1.54-.78-.208 0-.689.19-1.443.565a5.401 5.401 0 0 1-2.455.566c-2.547 0-3.82-1.186-3.82-3.558v-3.096c0-2.372 1.26-3.559 3.78-3.559zm14.618-7.992l5.067-2.456c.467-.207.702-.597.702-1.17 0-.467-.157-.902-.469-1.305-.311-.402-.676-.605-1.09-.605a3.52 3.52 0 0 0-.508.078l-5.145 2.495c-.442.208-.663.611-.663 1.209 0 .442.156.87.469 1.287.31.416.674.623 1.09.623.104 0 .286-.052.547-.156zm6.197 14.345c.546 0 .988-.026 1.326-.077.337-.052.707-.181 1.111-.387.403-.205.701-.56.897-1.061.194-.502.291-1.138.291-1.91 0-2.115-.785-3.87-2.358-5.267-1.572-1.397-3.463-2.096-5.671-2.096-2.365 0-4.38.768-6.042 2.3-1.664 1.533-2.495 3.366-2.495 5.497v3.313c0 2.39.877 4.32 2.63 5.788 1.755 1.469 4.022 2.203 6.803 2.203 1.949 0 3.58-.357 4.892-1.072 1.312-.715 1.97-1.436 1.97-2.164 0-.467-.184-.955-.547-1.461-.364-.507-.819-.76-1.364-.76-.287 0-.91.247-1.871.74-.962.494-1.936.74-2.924.74-1.378 0-2.482-.343-3.314-1.033-.832-.688-1.247-1.59-1.247-2.708v-.585h7.913zm-7.913-3.982c0-.85.337-1.535 1.013-2.057.676-.521 1.469-.783 2.379-.783.961 0 1.774.268 2.436.801.662.534.994 1.226.994 2.076 0 .388-.085.649-.254.782-.169.134-.462.2-.877.2h-5.69v-1.02zm28.163 11.213c1.313-.715 1.97-1.436 1.97-2.164 0-.467-.183-.955-.547-1.461-.363-.507-.817-.76-1.363-.76-.286 0-.91.247-1.872.74-.961.494-1.937.74-2.923.74-1.378 0-2.481-.343-3.315-1.033-.83-.688-1.246-1.59-1.246-2.708v-.585h7.914a9.18 9.18 0 0 0 1.324-.077c.337-.052.71-.181 1.112-.387.402-.205.7-.56.895-1.061.195-.502.294-1.138.294-1.91 0-2.115-.787-3.87-2.36-5.267-1.571-1.397-3.463-2.096-5.671-2.096-2.365 0-4.379.768-6.041 2.3-1.664 1.533-2.495 3.366-2.495 5.497v3.313c0 2.39.877 4.32 2.63 5.788 1.754 1.469 4.022 2.203 6.803 2.203 1.95 0 3.578-.357 4.891-1.072zm-9.296-11.213c0-.85.337-1.535 1.013-2.057.677-.521 1.468-.783 2.377-.783.962 0 1.775.268 2.437.801.663.534.994 1.226.994 2.076 0 .388-.084.649-.253.782s-.462.2-.877.2h-5.69v-1.02zM14.12 250.164c-.156-.546-.546-.968-1.17-1.267-.623-.299-1.325-.448-2.104-.448-.78 0-1.476.135-2.086.404-.611.269-.995.649-1.15 1.141L.08 274.511c-.053.222-.079.36-.079.416 0 .64.386 1.174 1.159 1.605a4.918 4.918 0 0 0 2.432.646c1.083 0 1.726-.337 1.931-1.01l1.454-5.189h8.35l1.483 5.185c.18.676.752 1.014 1.715 1.014.727 0 1.442-.208 2.143-.624s1.053-.91 1.053-1.482c0-.051-.026-.18-.078-.389l-7.523-24.519zm-6.03 16.84l3.35-11.967 3.39 11.967H8.09zm27.555-8.576c-1.222 0-2.293.289-3.215.866-.924.576-1.592 1.284-2.008 2.123v-1.18c0-.473-.215-.854-.643-1.142-.43-.289-.955-.433-1.579-.433-.753 0-1.358.143-1.812.428-.455.287-.682.663-.682 1.131v15.359c0 .416.24.785.72 1.11.481.325 1.073.488 1.774.488.675 0 1.267-.169 1.774-.506.506-.337.76-.7.76-1.088v-9.214c0-1.036.318-1.878.955-2.526.636-.648 1.384-.972 2.241-.972.91 0 1.702.356 2.378 1.068.676.713 1.014 1.523 1.014 2.43v9.214c0 .493.253.88.76 1.166.507.285 1.084.428 1.734.428.676 0 1.268-.143 1.774-.429.507-.286.76-.675.76-1.17v-9.238c0-2.156-.669-4.015-2.007-5.574-1.34-1.56-2.904-2.339-4.698-2.339zm21.479 0c-1.222 0-2.293.289-3.216.866-.923.576-1.592 1.284-2.008 2.123v-1.18c0-.473-.214-.854-.642-1.142-.43-.289-.956-.433-1.58-.433-.753 0-1.358.143-1.812.428-.455.287-.682.663-.682 1.131v15.359c0 .416.24.785.721 1.11.48.325 1.072.488 1.774.488.675 0 1.266-.169 1.774-.506.506-.337.76-.7.76-1.088v-9.214c0-1.036.317-1.878.955-2.526.636-.648 1.383-.972 2.24-.972.91 0 1.703.356 2.378 1.068.676.713 1.014 1.523 1.014 2.43v9.214c0 .493.254.88.76 1.166.507.285 1.085.428 1.735.428.676 0 1.267-.143 1.773-.429.508-.286.76-.675.76-1.17v-9.238c0-2.156-.668-4.015-2.006-5.574-1.34-1.56-2.905-2.339-4.698-2.339zm23.778 10.797c.546 0 .988-.025 1.326-.077.337-.051.708-.18 1.111-.386.403-.205.702-.56.897-1.062.194-.501.291-1.138.291-1.91 0-2.115-.785-3.87-2.358-5.267-1.572-1.397-3.463-2.095-5.671-2.095-2.365 0-4.38.767-6.042 2.3-1.664 1.533-2.495 3.365-2.495 5.496v3.314c0 2.39.877 4.32 2.63 5.788 1.755 1.469 4.022 2.203 6.804 2.203 1.948 0 3.579-.358 4.891-1.072 1.312-.715 1.97-1.436 1.97-2.164 0-.468-.184-.955-.547-1.462-.364-.506-.819-.76-1.364-.76-.287 0-.91.248-1.871.74-.962.495-1.936.741-2.924.741-1.378 0-2.482-.344-3.313-1.033-.832-.688-1.247-1.59-1.247-2.708v-.586H80.9zm-7.912-3.982c0-.849.337-1.534 1.012-2.057.676-.52 1.469-.782 2.379-.782.961 0 1.774.268 2.436.8.663.535.994 1.227.994 2.076 0 .389-.085.65-.253.783-.17.134-.463.2-.877.2h-5.691v-1.02zm27.753 6.711c-.208 0-.689.19-1.443.565a5.401 5.401 0 0 1-2.455.566c-2.547 0-3.82-1.186-3.82-3.559v-3.095c0-2.373 1.26-3.559 3.78-3.559.884 0 1.71.175 2.476.526s1.228.526 1.384.526c.546 0 1.013-.272 1.403-.819.39-.545.585-1.09.585-1.637 0-.78-.598-1.48-1.794-2.104s-2.676-.936-4.443-.936c-2.806 0-4.912.734-6.315 2.202-1.403 1.469-2.105 3.398-2.105 5.79v3.118c0 2.416.702 4.352 2.105 5.807 1.403 1.457 3.52 2.184 6.354 2.184 1.767 0 3.28-.332 4.541-.994s1.89-1.397 1.89-2.203c0-.546-.2-1.078-.603-1.598-.404-.52-.916-.78-1.54-.78zm20.972-12.811c-.806-.502-1.547-.754-2.222-.754-.701 0-1.144.283-1.326.85l-3.78 11.558-4.679-11.558c-.181-.567-.662-.85-1.442-.85-.701 0-1.436.244-2.203.734-.766.49-1.149 1.045-1.149 1.663 0 .18.052.4.156.656l6.705 14.225c-.13 2.035-.787 3.492-1.969 4.368-1.183.875-2.385 1.313-3.606 1.313-.858 0-1.286.735-1.286 2.202 0 .897.194 1.495.585 1.794.39.299.96.448 1.715.448.857 0 1.65-.084 2.377-.253.727-.17 1.346-.365 1.852-.586.507-.221 1.007-.572 1.5-1.053.495-.481.878-.885 1.15-1.21.274-.325.585-.845.937-1.56.35-.715.597-1.242.74-1.58.143-.338.37-.949.682-1.833l.662-1.716 5.692-14.552c.078-.183.117-.377.117-.586 0-.645-.403-1.218-1.208-1.72zm5.322 12.967c-.7 0-1.294.26-1.782.78a2.635 2.635 0 0 0-.733 1.871c0 1.066.415 1.858 1.247 2.378l-.896 2.066a1.09 1.09 0 0 0-.156.545c0 .39.181.708.546.956.364.246.74.37 1.13.37.494 0 .844-.222 1.052-.663 1.43-3.352 2.145-5.25 2.145-5.691 0-.727-.25-1.345-.75-1.852a2.447 2.447 0 0 0-1.803-.76zm34.36-23.037c-.494-.26-1.091-.39-1.793-.39-.701 0-1.3.13-1.793.39s-.74.65-.74 1.168v10.175h-8.772v-10.175c0-.518-.246-.908-.74-1.168s-1.092-.39-1.793-.39c-.702 0-1.3.13-1.793.39s-.741.65-.741 1.168v25.339c0 .494.247.883.74 1.17.495.285 1.092.428 1.794.428.676 0 1.267-.143 1.773-.429.508-.286.76-.675.76-1.17v-11.187h8.771v11.188c0 .494.247.883.74 1.17.495.285 1.093.428 1.794.428.676 0 1.267-.143 1.774-.429.506-.286.76-.675.76-1.17v-25.338c0-.518-.248-.908-.74-1.168zm12.357 9.355c-1.481 0-2.891.28-4.23.838-1.338.559-2.007 1.215-2.007 1.969 0 .623.157 1.195.468 1.715.312.52.727.78 1.248.78.129 0 .61-.221 1.442-.664.831-.44 1.832-.662 3.002-.662 1.168 0 2.032.367 2.592 1.103.558.735.838 1.597.838 2.586v.52h-1.6c-2.935 0-5.184.419-6.743 1.251-1.559.834-2.338 2.274-2.338 4.32 0 1.742.473 3.068 1.422 3.978.95.912 2.164 1.367 3.645 1.367 2.157 0 4.132-1.09 5.925-3.268v1.209c0 .472.215.875.643 1.207.43.334.969.5 1.619.5.701 0 1.286-.155 1.753-.467.468-.312.702-.689.702-1.13v-9.55c0-2.183-.689-3.996-2.066-5.44-1.377-1.441-3.483-2.162-6.315-2.162zm3.353 11.574c0 .888-.39 1.702-1.17 2.441s-1.586 1.11-2.416 1.11c-.625 0-1.125-.167-1.502-.499-.377-.333-.565-.833-.565-1.498 0-.937.449-1.56 1.346-1.869.896-.308 2.137-.462 3.722-.462h.585v.777zm25.843-10.873c-.467-.312-1.066-.467-1.793-.467-.676 0-1.266.155-1.774.466-.506.312-.76.674-.76 1.09v9.368c0 .907-.33 1.717-.994 2.43-.662.713-1.461 1.069-2.397 1.069-.935 0-1.74-.356-2.417-1.07-.675-.712-1.013-1.522-1.013-2.43v-9.329c0-.39-.254-.752-.76-1.089a3.062 3.062 0 0 0-1.735-.505c-.676 0-1.267.169-1.774.506-.506.338-.76.702-.76 1.092v9.356c0 2.104.838 3.95 2.515 5.534 1.676 1.586 3.657 2.379 5.944 2.379 2.286 0 4.262-.793 5.925-2.379 1.663-1.584 2.495-3.43 2.495-5.534v-9.395c0-.416-.233-.78-.702-1.092zm15.125 3.509c.389 0 .701-.197.934-.592.234-.395.351-.86.351-1.396 0-.536-.117-1-.35-1.395-.234-.396-.546-.593-.935-.593h-4.6v-6.452c0-.425-.254-.781-.76-1.069-.508-.287-1.098-.431-1.774-.431-.624 0-1.196.148-1.715.443-.521.295-.78.662-.78 1.097v18.686c0 4.162 2.403 6.242 7.21 6.242h1.522c.675 0 1.202-.218 1.578-.653.376-.435.565-.965.565-1.59 0-.597-.189-1.114-.565-1.55-.376-.434-.903-.651-1.578-.651h-1.521c-.805 0-1.371-.148-1.696-.445-.324-.298-.487-.805-.487-1.522v-8.13h4.6zm17.072 6.587c.546 0 .988-.025 1.326-.077.337-.051.708-.18 1.111-.386.403-.205.702-.56.897-1.062.194-.501.291-1.138.291-1.91 0-2.115-.785-3.87-2.358-5.267-1.572-1.397-3.463-2.095-5.67-2.095-2.366 0-4.38.767-6.043 2.3-1.664 1.533-2.495 3.365-2.495 5.496v3.314c0 2.39.877 4.32 2.63 5.788 1.755 1.469 4.022 2.203 6.804 2.203 1.948 0 3.579-.358 4.891-1.072 1.312-.715 1.97-1.436 1.97-2.164 0-.468-.184-.955-.547-1.462-.364-.506-.819-.76-1.364-.76-.287 0-.91.248-1.871.74-.962.495-1.936.741-2.924.741-1.377 0-2.482-.344-3.313-1.033-.832-.688-1.247-1.59-1.247-2.708v-.586h7.912zm-7.912-3.982c0-.849.337-1.534 1.012-2.057.676-.52 1.469-.782 2.379-.782.961 0 1.774.268 2.436.8.663.535.994 1.227.994 2.076 0 .389-.085.65-.253.783-.17.134-.463.2-.877.2h-5.691v-1.02zm26.78.669h-10.135c-.468 0-.845.193-1.13.576-.287.384-.43.86-.43 1.43 0 .596.143 1.072.43 1.432.285.359.662.539 1.13.539h10.135c.441 0 .825-.186 1.149-.558.325-.372.488-.842.488-1.412 0-.545-.17-1.016-.507-1.412-.338-.397-.715-.595-1.13-.595zm19.704-3.586a25.635 25.635 0 0 0-3.001-1.735 34.696 34.696 0 0 0-3.002-1.325c-.923-.351-1.696-.805-2.32-1.364s-.935-1.215-.935-1.969c0-.935.383-1.67 1.15-2.203.766-.532 1.852-.799 3.255-.799 1.272 0 2.43.248 3.47.74 1.039.495 1.675.742 1.91.742.623 0 1.116-.309 1.48-.927.364-.618.546-1.217.546-1.795 0-.615-.266-1.149-.8-1.602-.532-.453-1.22-.787-2.065-1a19.938 19.938 0 0 0-2.397-.461 17.48 17.48 0 0 0-2.144-.14c-1.196 0-2.326.139-3.391.415a10.534 10.534 0 0 0-3.003 1.306c-.934.593-1.682 1.424-2.24 2.492-.56 1.068-.839 2.302-.839 3.7 0 1.247.227 2.358.682 3.332.455.975 1.053 1.755 1.794 2.34.74.584 1.559 1.11 2.455 1.579.897.467 1.787.89 2.67 1.266.884.377 1.696.767 2.437 1.17.741.403 1.338.91 1.793 1.52.455.61.682 1.306.682 2.086 0 1.117-.416 1.962-1.247 2.533-.832.572-1.871.858-3.118.858-.91 0-1.742-.162-2.496-.486-.754-.324-1.33-.682-1.733-1.073-.404-.391-.82-.75-1.248-1.073-.43-.325-.813-.487-1.15-.487-.573 0-1.085.306-1.54.916-.455.611-.682 1.215-.682 1.813 0 1.195.883 2.3 2.65 3.313 1.767 1.014 3.885 1.52 6.354 1.52 2.781 0 5.022-.723 6.725-2.171 1.7-1.448 2.553-3.506 2.553-6.17 0-1.585-.312-2.969-.935-4.152-.625-1.182-1.398-2.085-2.32-2.71zm13.662-3.898c-1.48 0-2.89.28-4.23.838-1.337.559-2.006 1.215-2.006 1.969 0 .623.156 1.195.467 1.715.313.52.728.78 1.248.78.13 0 .61-.221 1.442-.664.832-.44 1.832-.662 3.002-.662 1.169 0 2.033.367 2.593 1.103.557.735.838 1.597.838 2.586v.52h-1.6c-2.936 0-5.184.419-6.743 1.251-1.56.834-2.339 2.274-2.339 4.32 0 1.742.474 3.068 1.423 3.978.949.912 2.164 1.367 3.645 1.367 2.157 0 4.132-1.09 5.925-3.268v1.209c0 .472.214.875.643 1.207.429.334.968.5 1.618.5.702 0 1.286-.155 1.753-.467.469-.312.703-.689.703-1.13v-9.55c0-2.183-.69-3.996-2.066-5.44-1.378-1.441-3.483-2.162-6.316-2.162zm3.354 11.574c0 .888-.39 1.702-1.17 2.441-.78.74-1.586 1.11-2.417 1.11-.624 0-1.124-.167-1.501-.499-.377-.333-.565-.833-.565-1.498 0-.937.449-1.56 1.345-1.869.897-.308 2.137-.462 3.722-.462h.586v.777zm24.946-10.892c-.806-.454-1.52-.682-2.144-.682-.727 0-1.208.312-1.442.936l-4.327 11.226-4.327-11.304c-.234-.571-.728-.858-1.48-.858-.702 0-1.438.22-2.204.662-.766.443-1.15.936-1.15 1.481 0 .287.066.521.195.703l6.706 15.436c.258.597 1.012.896 2.26.896s2.014-.299 2.3-.896l6.666-15.436c.103-.209.155-.43.155-.664 0-.545-.402-1.045-1.208-1.5zm12.085-.682c-2.314 0-4.302.787-5.964 2.358-1.664 1.572-2.495 3.424-2.495 5.555v3.197c0 2.104.843 3.963 2.534 5.573 1.688 1.613 3.663 2.418 5.925 2.418 2.26 0 4.235-.805 5.925-2.418 1.688-1.61 2.533-3.47 2.533-5.573v-3.197c0-2.156-.845-4.015-2.533-5.574-1.69-1.56-3.665-2.339-5.925-2.339zm3.43 11.098c0 .928-.345 1.753-1.033 2.475-.69.723-1.489 1.084-2.397 1.084-.936 0-1.742-.36-2.418-1.084-.676-.722-1.013-1.547-1.013-2.475v-3.172c0-.903.337-1.71 1.013-2.418.676-.71 1.482-1.064 2.418-1.064.908 0 1.708.36 2.397 1.084.688.722 1.033 1.52 1.033 2.398v3.172zm13.65-10.436c-.46-.285-1.04-.428-1.743-.428-.698 0-1.272.143-1.722.428-.45.287-.675.663-.675 1.131v15.359c0 .416.231.785.693 1.11.464.325 1.03.488 1.704.488.65 0 1.22-.169 1.705-.507.49-.338.731-.702.731-1.091V260.22c0-.468-.23-.844-.694-1.13zm-1.739-9.004c-.809 0-1.488.217-2.04.653-.552.434-.828.958-.828 1.569 0 .588.276 1.105.829 1.552.551.446 1.23.67 2.04.67.727 0 1.347-.224 1.856-.67.514-.447.773-.964.773-1.552 0-.611-.26-1.135-.773-1.57-.51-.435-1.13-.652-1.857-.652zm19.662 19.14a9.18 9.18 0 0 0 1.325-.078c.337-.051.709-.18 1.111-.386s.7-.56.896-1.062c.195-.501.294-1.138.294-1.91 0-2.115-.787-3.87-2.36-5.267-1.572-1.397-3.464-2.095-5.672-2.095-2.364 0-4.38.767-6.04 2.3-1.665 1.533-2.497 3.365-2.497 5.496v3.314c0 2.39.877 4.32 2.632 5.788 1.754 1.469 4.022 2.203 6.803 2.203 1.95 0 3.578-.358 4.89-1.072s1.97-1.436 1.97-2.164c0-.468-.182-.955-.546-1.462-.364-.506-.818-.76-1.364-.76-.285 0-.91.248-1.871.74-.961.495-1.937.741-2.923.741-1.378 0-2.484-.344-3.313-1.033-.832-.688-1.25-1.59-1.25-2.708v-.586h7.915zm-7.914-3.983c0-.849.339-1.534 1.014-2.057.676-.52 1.467-.782 2.377-.782.961 0 1.775.268 2.436.8.664.535.994 1.227.994 2.076 0 .389-.084.65-.252.783s-.462.2-.877.2h-5.692v-1.02zm17.328 6.867c-.7 0-1.296.26-1.783.78a2.636 2.636 0 0 0-.733 1.871c0 1.066.417 1.858 1.249 2.378l-.898 2.066a1.08 1.08 0 0 0-.156.545c0 .39.183.708.546.956.364.246.74.37 1.13.37.493 0 .844-.222 1.054-.663 1.427-3.352 2.142-5.25 2.142-5.691 0-.727-.248-1.345-.75-1.852a2.445 2.445 0 0 0-1.801-.76zm33.192-22.784c-.261-.429-.651-.644-1.171-.644h-13.604c-.598 0-1.118.144-1.56.43-.44.285-.66.676-.66 1.168v25.3c0 .494.246.883.739 1.17.493.285 1.093.428 1.793.428.676 0 1.267-.143 1.775-.429.505-.286.76-.675.76-1.17V264.9h5.963c.493 0 .877-.195 1.15-.585.273-.39.409-.844.409-1.364 0-.572-.136-1.053-.409-1.443-.273-.39-.657-.584-1.15-.584h-5.963v-7.797h10.757c.495 0 .877-.22 1.15-.662.274-.442.41-.975.41-1.598 0-.598-.13-1.111-.39-1.54zm10.837 9.102h-1.21c-1.012 0-1.961.341-2.845 1.023-.883.68-1.534 1.48-1.949 2.398v-1.613c0-.473-.214-.853-.643-1.141-.43-.289-.967-.433-1.618-.433-.728 0-1.32.143-1.773.428-.456.287-.682.663-.682 1.131v15.359c0 .416.234.785.7 1.11.469.325 1.054.488 1.755.488.675 0 1.273-.169 1.793-.506.52-.337.78-.7.78-1.088v-6.959c0-1.71.448-3.096 1.346-4.159.895-1.063 1.94-1.594 3.136-1.594h1.21c.466 0 .89-.223 1.266-.669.377-.445.566-.97.566-1.573 0-.576-.189-1.088-.566-1.533-.376-.446-.8-.669-1.266-.669zm11.304 0c-1.481 0-2.89.28-4.23.838-1.339.559-2.006 1.215-2.006 1.969 0 .623.156 1.195.468 1.715.31.52.727.78 1.247.78.13 0 .61-.221 1.442-.664.832-.44 1.832-.662 3-.662 1.172 0 2.034.367 2.593 1.103.559.735.838 1.597.838 2.586v.52h-1.598c-2.937 0-5.185.419-6.744 1.251-1.559.834-2.34 2.274-2.34 4.32 0 1.742.475 3.068 1.424 3.978.95.912 2.163 1.367 3.646 1.367 2.157 0 4.131-1.09 5.924-3.268v1.209c0 .472.214.875.643 1.207.43.334.968.5 1.619.5.7 0 1.286-.155 1.754-.467.466-.312.7-.689.7-1.13v-9.55c0-2.183-.688-3.996-2.064-5.44-1.378-1.441-3.484-2.162-6.316-2.162zm3.352 11.574c0 .888-.39 1.702-1.169 2.441-.78.74-1.585 1.11-2.417 1.11-.623 0-1.124-.167-1.5-.499-.378-.333-.565-.833-.565-1.498 0-.937.448-1.56 1.344-1.869.897-.308 2.138-.462 3.724-.462h.583v.777zm19.801-11.574c-1.222 0-2.294.289-3.216.866-.923.576-1.592 1.284-2.007 2.123v-1.18c0-.473-.214-.854-.643-1.142-.43-.289-.955-.433-1.58-.433-.753 0-1.357.143-1.811.428-.456.287-.682.663-.682 1.131v15.359c0 .416.24.785.72 1.11.481.325 1.073.488 1.773.488.676 0 1.268-.169 1.775-.506.507-.337.76-.7.76-1.088v-9.214c0-1.036.318-1.878.955-2.526.637-.648 1.385-.972 2.241-.972.91 0 1.703.356 2.379 1.068.676.713 1.013 1.523 1.013 2.43v9.214c0 .493.252.88.76 1.166.507.285 1.084.428 1.735.428.674 0 1.266-.143 1.773-.429.507-.286.76-.675.76-1.17v-9.238c0-2.156-.67-4.015-2.007-5.574-1.34-1.56-2.904-2.339-4.698-2.339zm23.663 13.526c-.21 0-.69.19-1.442.565a5.405 5.405 0 0 1-2.456.566c-2.547 0-3.82-1.186-3.82-3.559v-3.095c0-2.373 1.26-3.559 3.78-3.559.884 0 1.71.175 2.476.526s1.228.526 1.384.526c.547 0 1.013-.272 1.403-.819.39-.545.586-1.09.586-1.637 0-.78-.6-1.48-1.794-2.104-1.195-.624-2.676-.936-4.445-.936-2.805 0-4.91.734-6.314 2.202-1.403 1.469-2.105 3.398-2.105 5.79v3.118c0 2.416.702 4.352 2.105 5.807 1.403 1.457 3.52 2.184 6.353 2.184 1.767 0 3.28-.332 4.542-.994 1.261-.663 1.892-1.397 1.892-2.203 0-.546-.203-1.078-.606-1.598-.403-.52-.916-.78-1.539-.78zm17.97-2.729a9.18 9.18 0 0 0 1.324-.077c.337-.051.709-.18 1.112-.386.402-.205.7-.56.895-1.062.195-.501.294-1.138.294-1.91 0-2.115-.787-3.87-2.36-5.267-1.572-1.397-3.463-2.095-5.671-2.095-2.365 0-4.38.767-6.042 2.3-1.663 1.533-2.495 3.365-2.495 5.496v3.314c0 2.39.877 4.32 2.631 5.788 1.754 1.469 4.022 2.203 6.803 2.203 1.95 0 3.578-.358 4.89-1.072s1.97-1.436 1.97-2.164c0-.468-.182-.955-.546-1.462-.363-.506-.817-.76-1.364-.76-.285 0-.91.248-1.87.74-.962.495-1.938.741-2.924.741-1.378 0-2.483-.344-3.313-1.033-.832-.688-1.249-1.59-1.249-2.708v-.586h7.915zm-7.915-3.982c0-.849.34-1.534 1.015-2.057.676-.52 1.466-.782 2.376-.782.962 0 1.775.268 2.437.8.663.535.994 1.227.994 2.076 0 .389-.084.65-.253.783s-.462.2-.877.2h-5.692v-1.02zM202.545 49.18c4.232 0 7.846-1.59 10.838-4.776 2.992-3.183 4.488-6.868 4.488-11.063 0-4.358-1.496-8.088-4.488-11.187s-6.606-4.65-10.838-4.65c-4.72 0-8.69 1.55-11.908 4.65-3.224 3.099-4.833 6.83-4.833 11.187 0 4.195 1.61 7.88 4.833 11.063 3.219 3.186 7.188 4.776 11.908 4.776zm14.19 42.543c0-2.73-1.351-4.926-4.045-6.596-2.697-1.667-6.087-2.502-10.167-2.502s-7.434.835-10.057 2.502c-2.622 1.67-3.933 3.866-3.933 6.596v89.606c0 2.427 1.347 4.588 4.044 6.482 2.693 1.898 6.01 2.843 9.946 2.843 3.789 0 7.104-.984 9.947-2.957 2.843-1.97 4.264-4.094 4.264-6.368V91.723zM13.571 187.784c3.301 1.915 7.303 2.869 11.997 2.869 4.52 0 8.476-.954 11.868-2.869 3.39-1.911 5.085-4.52 5.085-7.825V65.724l29.993 56.336c2.433 4.523 6.17 6.78 11.215 6.78 5.217 0 9.038-2.257 11.476-6.78l30.515-54.25V179.96c0 3.305 1.65 5.914 4.956 7.825 3.3 1.915 7.302 2.869 11.996 2.869 4.52 0 8.477-.954 11.868-2.869 3.39-1.911 5.086-4.52 5.086-7.825V16.952c0-5.738-1.61-9.996-4.825-12.78C151.582 1.395 147.539 0 142.673 0c-6.434 0-11.435 1.133-14.996 3.39-3.566 2.262-7.433 7.132-11.606 14.606l-32.08 58.42-32.08-58.42c-4.173-7.474-8-12.344-11.475-14.606C36.955 1.133 31.999 0 25.569 0c-4.87 0-8.912 1.394-12.127 4.173-3.22 2.783-4.825 7.041-4.825 12.78v163.006c0 3.305 1.65 5.914 4.955 7.825zm583.446 27.775l-2.776-1.01a86.197 86.197 0 0 0-29.76-5.3H366.53v21.16H564.49a86.479 86.479 0 0 0 29.753-5.28l2.776-1.009c3.976-1.472 3.976-7.11 0-8.56z"/></svg>